<svg width="356" height="460" viewBox="0 0 356 460" fill="none" xmlns="http://www.w3.org/2000/svg">
<path d="M281.318 450.153C260.857 460.256 230.701 465.557 214.633 445.121C189.497 412.334 210.865 337.922 221.735 301.099C243.269 231.476 274.651 165.8 303.81 99.371C310.771 81.9494 327.209 46.2632 325.421 29.1992C325.357 28.8416 325.281 28.6372 325.255 28.535C325.217 28.4967 325.255 28.5095 325.383 28.7394C325.6 29.097 326.405 29.7995 326.788 29.9272C327.197 30.0677 326.903 29.9272 326.137 29.8889C325.958 29.8634 325.741 29.8634 325.485 29.8634H325.306H325.217C325.14 29.8634 325.179 29.8634 325.306 29.8634C325.638 29.8634 326.111 29.7612 326.29 29.7484C327.299 29.5313 327.363 29.4036 327.222 29.4802C323.544 31.5621 319.929 34.9851 316.34 38.4337C301.677 52.8921 288.228 68.5766 274.728 84.7337C242.081 124.098 210.968 165.558 173.915 201.538C161.781 212.662 140.029 233.405 121.905 227.325C93.525 213.442 113.092 163.808 115.072 139.898C115.302 136.807 115.685 133.627 114.906 131.276C114.881 131.225 114.906 131.366 115.123 131.621C115.328 131.877 115.749 132.222 116.119 132.388C116.49 132.567 116.758 132.605 116.796 132.605C115.749 133.282 114.791 134.444 113.833 135.657C95.9645 158.431 86.8323 186.607 66.7795 208.614C61.9771 213.735 56.9958 219.01 50.699 222.433C45.5007 225.805 40.0724 228.5 33.7628 229.484C21.4118 231.732 8.74159 224.975 2.49587 214.476C1.02704 211.883 -2.03835 207.681 2.02329 205.701C3.44103 205.088 4.87154 205.561 5.91888 206.519C7.74534 208.001 9.90388 209.699 11.9858 210.9C17.4396 214.259 24.4261 215.804 30.0843 213.403C33.9033 211.922 37.8372 209.316 40.5449 206.097C51.5292 194.794 59.4482 181.97 68.044 168.24C75.5031 156.63 82.7706 143.73 91.4431 132.183C98.0975 122.77 110.423 113.165 122.723 118.057C136.606 124.929 129.16 147.383 127.283 158.865C125.098 170.96 115.136 206.991 128.458 213.25L127.014 212.752C161.564 213.071 257.881 61.3474 286.644 28.2668C292.749 20.961 298.446 14.3193 306.173 7.94587C310.708 4.33127 317.055 0.26964 324.029 0.0397365C325.179 0.0397365 326.29 -0.0496706 327.49 0.0397365C338.411 0.167461 349.408 6.89853 353.291 17.8701C362.87 43.185 340.569 87.02 330.658 110.828C329.279 114.136 326.762 119.564 325.191 122.847C310.273 153.552 295.534 183.758 281.74 214.834C265.353 253.905 190.353 417.047 233.128 443.243C245.645 450.294 264.126 447.037 277.512 442.094C282.825 439.897 286.414 447.445 281.331 450.191L281.318 450.153Z" fill="#0B1A52"/>
</svg>
