<svg width="974" height="1248" viewBox="0 0 974 1248" fill="none" xmlns="http://www.w3.org/2000/svg">
<path d="M770.467 1222.87C714.428 1250.54 631.838 1265.06 587.832 1209.09C518.99 1119.29 577.513 915.492 607.282 814.642C666.259 623.962 752.207 444.09 832.069 262.155C851.133 214.441 896.154 116.704 891.256 69.9701C891.081 68.9906 890.871 68.4309 890.801 68.1511C890.697 68.0462 890.801 68.0811 891.151 68.7108C891.746 69.6903 893.95 71.6142 894.999 71.964C896.119 72.3488 895.314 71.964 893.215 71.8591C892.725 71.7891 892.131 71.7891 891.431 71.7891H890.941H890.697C890.487 71.7891 890.592 71.7891 890.941 71.7891C891.851 71.7891 893.145 71.5093 893.635 71.4743C896.398 70.8796 896.573 70.5298 896.189 70.7397C886.114 76.4416 876.214 85.8164 866.385 95.2612C826.227 134.86 789.392 177.816 752.417 222.067C663.006 329.878 577.793 443.426 476.313 541.967C443.082 572.435 383.509 629.244 333.871 612.593C256.144 574.569 309.735 438.633 315.157 373.149C315.786 364.684 316.836 355.973 314.702 349.537C314.632 349.397 314.702 349.782 315.297 350.481C315.856 351.181 317.011 352.126 318.025 352.58C319.04 353.07 319.774 353.175 319.879 353.175C317.011 355.029 314.387 358.212 311.764 361.535C262.825 423.906 237.814 501.074 182.894 561.346C169.741 575.373 156.099 589.82 138.853 599.195C124.616 608.43 109.749 615.811 92.4687 618.505C58.6422 624.661 23.9412 606.156 6.83562 577.402C2.81282 570.301 -5.58258 558.792 5.54133 553.37C9.4242 551.691 13.3421 552.986 16.2105 555.609C21.2127 559.667 27.1245 564.319 32.8264 567.608C47.7632 576.808 66.8977 581.04 82.3942 574.464C92.8535 570.406 103.628 563.27 111.044 554.455C141.127 523.497 162.815 488.376 186.357 450.772C206.786 418.974 226.69 383.643 250.442 352.021C268.667 326.24 302.424 299.934 336.11 313.332C374.134 332.151 353.741 393.648 348.598 425.096C342.617 458.222 315.332 556.903 351.817 574.044L347.864 572.68C442.487 573.554 706.278 158.017 785.054 67.4165C801.775 47.4075 817.377 29.2174 838.54 11.762C850.958 1.86239 868.344 -9.26152 887.443 -9.89117C890.592 -9.89117 893.635 -10.136 896.923 -9.89117C926.832 -9.54136 956.95 8.89354 967.584 38.9421C993.82 108.274 932.744 228.328 905.598 293.533C901.821 302.593 894.929 317.46 890.627 326.45C849.769 410.544 809.401 493.273 771.622 578.382C726.741 685.388 521.334 1132.2 638.485 1203.94C672.766 1223.25 723.383 1214.33 760.043 1200.8C774.595 1194.78 784.425 1215.45 770.502 1222.97L770.467 1222.87Z" fill="#DDD6CB"/>
</svg>
